PathFileType	4	(X/Y/Z)	52_2_29_p0_0-268_filt_butterworth.trc
DataRate	CameraRate	NumFrames	NumMarkers	Units	OrigDataRate	OrigDataStartFrame	OrigNumFrames
40.0	40.0	6	27	m	40.0	0	268
Frame#	Time	RHip			RKnee			RAnkle			RBigToe			RSmallToe			RHeel			LHip			LKnee			LAnkle			LBigToe			LSmallToe			LHeel			Neck			Head			Nose			RShoulder			RElbow			RWrist			RThumb			RIndex			RPinky			LShoulder			LElbow			LWrist			LThumb			LIndex			LPinky			
		X1	Y1	Z1	X2	Y2	Z2	X3	Y3	Z3	X4	Y4	Z4	X5	Y5	Z5	X6	Y6	Z6	X7	Y7	Z7	X8	Y8	Z8	X9	Y9	Z9	X10	Y10	Z10	X11	Y11	Z11	X12	Y12	Z12	X13	Y13	Z13	X14	Y14	Z14	X15	Y15	Z15	X16	Y16	Z16	X17	Y17	Z17	X18	Y18	Z18	X19	Y19	Z19	X20	Y20	Z20	X21	Y21	Z21	X22	Y22	Z22	X23	Y23	Z23	X24	Y24	Z24	X25	Y25	Z25	X26	Y26	Z26	X27	Y27	Z27	
0	0.0	0.20909161215533242	0.5440364553770443	0.4910807142769137	0.12445525317079816	0.6633626166420311	0.88512319871515	0.012997840292042389	0.8655974463092322	1.2880337862008875	0.007764202814527204	0.6120323954009481	1.3045482318240178	0.06486919085720616	0.6547525947901599	1.3324603588439343	-0.004333163271131579	0.9099255793918585	1.3157950008833252	0.012479730368217994	0.5711232381701288	0.4744485645204152	-0.07609524279703705	0.6653619090509777	0.8333864667474504	-0.15463008618798815	0.7730976423362507	1.2049763902724342	-0.13583002858936277	0.5630023837437661	1.2470946607448707	-0.2005553979928541	0.6362060269468107	1.2575526029896342	-0.15394167201343367	0.8670890256971697	1.2785883346856717	0.23102799530540216	0.45386488620342774	0.006052478608164252	0.2893215300871148	0.35639501020054587	-0.2193190316760577	0.2512176402384975	0.2966309726443591	-0.07965920641067845	0.349778481034664	0.4382352870542383	0.11165972885390227	0.30927380826528583	0.48871378922045533	0.37310504672082	0.14696065379456483	0.4015019792226493	0.515171187186942	0.03252144823371035	0.32709226695316773	0.5622604628291337	0.03285050409191462	0.36781037307791803	0.5882645538347829	0.07339576260840698	0.4243335496458907	0.6440286896659422	0.07344156167252615	0.49106948623808827	0.04934614925716268	0.0010850442308693682	0.45620012255927883	0.28976747308533846	0.05452978388992937	0.39994148234093085	0.49887036480770514	0.06508978554963263	0.3327685396721467	0.5828927650775203	0.06757916309181097	0.34686076349409073	0.5939218156918185	0.060400045674299116	0.4148799883464488	0.5988696382456186
1	0.025	0.20595151314168186	0.5545218546992425	0.49660292938175876	0.12106332057897844	0.6543591071892685	0.8896093782168726	0.017875686958191632	0.8508124258878249	1.2838705968822395	0.007383942773875269	0.6142117039691348	1.308719449198881	0.06464599109457059	0.6548116580091382	1.3328142926807505	-0.0041559601292331435	0.9100069364626111	1.315937617934445	0.010412616999422022	0.5741531218167162	0.48029253235304203	-0.07794244084941913	0.6703423818417856	0.8341631285410085	-0.15555603494952439	0.7732893639577822	1.2068878680869803	-0.13588502594357396	0.5625021204044046	1.246842203416003	-0.2007015124228562	0.6368268419112545	1.2579353177733903	-0.15252365286542857	0.8522431318125812	1.2737512286877208	0.23107895126245565	0.4538868379094273	0.006051628536378137	0.28881003937867	0.35627551508615374	-0.2171015953893753	0.25268954598815874	0.30128569321590826	-0.08073627776959912	0.35000198579712544	0.43820340679237924	0.111628876062108	0.30630804958792457	0.48813691848470775	0.3712422435770626	0.14550630780132878	0.3942694003760705	0.5106598123735385	0.04653951075904886	0.3640297840593061	0.578706607260144	0.05285269038190659	0.4166616206314745	0.6046238725102917	0.07776500507167773	0.4332930506608962	0.6302052179214546	0.07274743266095259	0.4873506050878157	0.04928495599678649	0.0020157220754918495	0.45573313983218144	0.2868479060243947	0.05231548998283656	0.39622474691754755	0.49474580052959544	0.08064572226744868	0.36916477489311467	0.5898620694634833	0.07955579641364599	0.37785617244494657	0.5998504196232324	0.05649738363956755	0.4069574655869395	0.5967136154052621
2	0.05	0.203397489309092	0.5588697007880398	0.49976207923710314	0.11799106284423819	0.6511429786812106	0.8918117348019026	0.019665008477245224	0.845332571198673	1.2823408005520018	0.006633431045544237	0.6142450906452576	1.3087406063412421	0.06361967796700012	0.6546436748343406	1.3327989469102361	-0.005310674745633744	0.9093226334061362	1.3155664530968552	0.009423832809111188	0.5752111433080943	0.4834270052707278	-0.08076165315362323	0.677322555945964	0.8353004832582834	-0.15586880114477117	0.7733457557964724	1.207448879841004	-0.13595855090545259	0.5669646879167439	1.2482349342014374	-0.20090897849613207	0.6362952579358122	1.2578398204039023	-0.15135055959649452	0.8524685060413857	1.275476140368892	0.2310910301656301	0.45388758297339027	0.005987489598096167	0.28859367389686263	0.3563251740387158	-0.21619077166951048	0.2531602740080533	0.3022669966531962	-0.0821040490477574	0.3499768323858087	0.4382110977555219	0.11161812827376913	0.3049923697323439	0.4878090266119439	0.3703828146691432	0.14648171930757536	0.39940404236533633	0.5112430835208839	0.061169645879222995	0.3865989817503586	0.5891372091752134	0.06711760478868595	0.4316782983145808	0.6129123265946339	0.080910131408509	0.43990397238459045	0.6235338147148966	0.0716764049036082	0.4816627087878854	0.049222358359037904	0.0023875608608488943	0.4557585886660781	0.2861296197096184	0.05210214355156764	0.3990414118559084	0.49385795722849124	0.08893378626980972	0.38707514189181924	0.5923519205334851	0.08537569352613034	0.39045093756199833	0.6020987144772003	0.05806203995374874	0.41229155080836566	0.5975785393574143
3	0.075	0.20231564345820363	0.5579632899870426	0.5003991677933424	0.11462793344339883	0.6514937588210283	0.8903590669804853	0.019335883690734024	0.8462307920662322	1.282613763335732	0.006165494381878717	0.6135015500056841	1.3072747934569384	0.06230590899275298	0.6543664326047737	1.332458838414511	-0.007298712467847926	0.9080985796587213	1.3148229246905208	0.009358736645092779	0.5749327582475519	0.4835561757684632	-0.08266229504883975	0.6815860090878635	0.8361018533040007	-0.156255025348828	0.7735172399918784	1.2082027822814159	-0.1359373379675404	0.575201753386898	1.252124204517219	-0.20096525766498757	0.6363386745231916	1.2578794759754803	-0.1524419919986017	0.8634077953502095	1.281075544458833	0.2310670577019587	0.45387400113852583	0.005978013721618881	0.28842364781751223	0.3566519260439695	-0.21525455823970835	0.25368484992284546	0.3038607831279941	-0.08307661949854453	0.3486292892655359	0.43809577082205353	0.11165564974824642	0.3049159271808216	0.48782433029105554	0.371136908443986	0.15085309456430468	0.4168051977029034	0.5164929913909735	0.07064613486901586	0.396210940048761	0.5926715006901946	0.07328263154058329	0.4259512720554265	0.6123014330054247	0.08404815740498867	0.4464072165161824	0.6232204878280759	0.07096612382666677	0.47792224912951164	0.049187710523535724	0.0022181121858643555	0.45631329132912213	0.28663315923356875	0.053955514585331314	0.40896311630119436	0.49583630096964026	0.09179122394670808	0.3926392904009423	0.5925114313270903	0.08657290899421861	0.39274190555360894	0.6022617031424398	0.06248908666959695	0.42410073383994096	0.5999627038329005
4	0.1	0.20229032904824187	0.5530848387562843	0.49989815702827867	0.11195680459489668	0.6518631129674981	0.8872257858286005	0.019006937704837898	0.8471311932023308	1.282880176189742	0.0065443758303414135	0.6139170994306954	1.3081139400490183	0.062118131348003536	0.6544442717410448	1.3322558944384344	-0.008456234067820055	0.9073044688206084	1.3143335018428501	0.009457330300062019	0.5746574107756929	0.4830506351275544	-0.08280968788474384	0.6814881908259051	0.8362289245831779	-0.15676058405989676	0.7737417324682968	1.2093052569469669	-0.13566653184870514	0.5809024587667105	1.2564742392939292	-0.20058815902407828	0.6409145479493661	1.2595336462967914	-0.15438671129519194	0.8698626179377201	1.2831157990946176	0.2309887449388823	0.4538823003490312	0.006290351443626242	0.28812336752153006	0.3570812530937526	-0.21353005342000542	0.25446500418762835	0.3066067379255211	-0.08337255562136683	0.3463463123251314	0.4378210143054614	0.11165454440768337	0.30602519498949393	0.4881833735967249	0.3723797475710547	0.1560188182838363	0.43429925314386053	0.5222171889593564	0.07390867479579455	0.40251477379115763	0.5926836690461633	0.07307785727155625	0.4252055622204769	0.6095451361787105	0.08791541647237616	0.45468592895394155	0.6247851102410111	0.07093117902074049	0.4777442053335057	0.049187190047474905	0.0018494122994981146	0.4568000510892904	0.2866175766734481	0.057064140323469334	0.41991173479327326	0.4979989703658736	0.09545670944305536	0.3986372868430278	0.5925924222910142	0.08914663782960393	0.3978531223684849	0.6023876275211515	0.06558297505588995	0.4328400608499714	0.6015687740340568
5	0.125	0.20238547031935808	0.545870483629908	0.49848536230924817	0.11114851103244006	0.6522887765839633	0.8860370518834473	0.01903637142919956	0.8469580633584988	1.2828249471726496	0.007101241703745373	0.6148013144194665	1.309904316513734	0.06307126525790152	0.6552141694178581	1.33254911492075	-0.008481108977992945	0.90720367552213	1.3142774036829008	0.009484040646193289	0.5746144370151307	0.4826935290749569	-0.08249779826902735	0.6805752238016185	0.8362347485690689	-0.15688799693181707	0.7737862536294988	1.20959136128339	-0.1354631159758692	0.582068697200619	1.2585376897200493	-0.20000390296051612	0.648773363067578	1.2624018724682868	-0.15478047247416699	0.8685117831873257	1.2808253865387278	0.23099420731456416	0.4538527961036768	0.006275494385782026	0.2879375609509373	0.35726865082737336	-0.2124719816218225	0.2547186325500399	0.3074122493265035	-0.08342225851047755	0.34514850588438795	0.4375330575031955	0.11142798763796759	0.3080422588616941	0.48867288568725653	0.37295485662229416	0.15939284581111987	0.44664433162754713	0.5262028187288206	0.07523020186935472	0.40915390258250367	0.5921776825025746	0.07074691947803927	0.42943533076073476	0.608902533342595	0.09084394960438164	0.4601383914849455	0.6233122236804922	0.07104911459400719	0.47833988548760914	0.049197191369250756	0.0017584310445349154	0.45676768160819703	0.2862224855831716	0.06055084728419406	0.4282323791927032	0.4984569325524994	0.10183226177539038	0.4046327951550699	0.5920489870274308	0.09507067397917524	0.4039885782389588	0.6025210027433598	0.06777540470472598	0.43866938261765287	0.6026180453345183
